<svg width="64" height="64" viewBox="0 0 64 64" fill="none" xmlns="http://www.w3.org/2000/svg">
<path d="M46 12H18C16.8954 12 16 12.8954 16 14V50C16 51.1046 16.8954 52 18 52H46C47.1046 52 48 51.1046 48 50V14C48 12.8954 47.1046 12 46 12Z" fill="#94A3B8"/>
<path d="M25.5 17H21.5C21.2239 17 21 17.2239 21 17.5V21.5C21 21.7761 21.2239 22 21.5 22H25.5C25.7761 22 26 21.7761 26 21.5V17.5C26 17.2239 25.7761 17 25.5 17Z" fill="#60A5FA"/>
<path d="M34 17H30C29.7239 17 29.5 17.2239 29.5 17.5V21.5C29.5 21.7761 29.7239 22 30 22H34C34.2761 22 34.5 21.7761 34.5 21.5V17.5C34.5 17.2239 34.2761 17 34 17Z" fill="#60A5FA"/>
<path d="M42.5 17H38.5C38.2239 17 38 17.2239 38 17.5V21.5C38 21.7761 38.2239 22 38.5 22H42.5C42.7761 22 43 21.7761 43 21.5V17.5C43 17.2239 42.7761 17 42.5 17Z" fill="#60A5FA"/>
<path d="M25.5 25H21.5C21.2239 25 21 25.2239 21 25.5V29.5C21 29.7761 21.2239 30 21.5 30H25.5C25.7761 30 26 29.7761 26 29.5V25.5C26 25.2239 25.7761 25 25.5 25Z" fill="#60A5FA"/>
<path d="M34 25H30C29.7239 25 29.5 25.2239 29.5 25.5V29.5C29.5 29.7761 29.7239 30 30 30H34C34.2761 30 34.5 29.7761 34.5 29.5V25.5C34.5 25.2239 34.2761 25 34 25Z" fill="#60A5FA"/>
<path d="M42.5 25H38.5C38.2239 25 38 25.2239 38 25.5V29.5C38 29.7761 38.2239 30 38.5 30H42.5C42.7761 30 43 29.7761 43 29.5V25.5C43 25.2239 42.7761 25 42.5 25Z" fill="#60A5FA"/>
<path d="M25.5 33H21.5C21.2239 33 21 33.2239 21 33.5V37.5C21 37.7761 21.2239 38 21.5 38H25.5C25.7761 38 26 37.7761 26 37.5V33.5C26 33.2239 25.7761 33 25.5 33Z" fill="#60A5FA"/>
<path d="M34 33H30C29.7239 33 29.5 33.2239 29.5 33.5V37.5C29.5 37.7761 29.7239 38 30 38H34C34.2761 38 34.5 37.7761 34.5 37.5V33.5C34.5 33.2239 34.2761 33 34 33Z" fill="#60A5FA"/>
<path d="M42.5 33H38.5C38.2239 33 38 33.2239 38 33.5V37.5C38 37.7761 38.2239 38 38.5 38H42.5C42.7761 38 43 37.7761 43 37.5V33.5C43 33.2239 42.7761 33 42.5 33Z" fill="#60A5FA"/>
<path d="M35.5 42H28.5C28.2239 42 28 42.2239 28 42.5V51.5C28 51.7761 28.2239 52 28.5 52H35.5C35.7761 52 36 51.7761 36 51.5V42.5C36 42.2239 35.7761 42 35.5 42Z" fill="#1E293B"/>
</svg>
