<svg width="193" height="32" viewBox="0 0 193 32" fill="none" xmlns="http://www.w3.org/2000/svg">
<path d="M28.1337 5.46173C27.5927 4.09954 26.8722 3.02534 25.9751 2.23625C25.078 1.44716 24.1297 0.848138 23.1329 0.439193C22.7855 0.298078 22.4409 0.180002 22.0963 0.0849659C21.1167 -0.179984 20.1598 0.588947 20.1598 1.61419C20.1598 2.36584 20.6724 3.02822 21.4015 3.18373C22.5064 3.41988 23.4718 3.98146 24.3006 4.87135C25.4283 6.08091 25.9922 7.7714 25.9922 9.93996C25.9922 12.3591 25.2119 14.2569 23.6541 15.6306C22.0963 17.0043 19.7469 17.6926 16.6057 17.6926H12.5305C9.43772 17.6926 7.07117 16.9986 5.42512 15.6134C3.77907 14.2252 2.95605 12.3792 2.95605 10.0724C2.95605 7.9154 3.59681 6.20762 4.88119 4.94911C5.83806 4.01026 6.89745 3.41988 8.06221 3.18085C8.78556 3.0311 9.29248 2.3716 9.29248 1.62283C9.29248 0.591828 8.34985 -0.185744 7.3588 0.0388876C6.89176 0.145444 6.43041 0.289438 5.97475 0.473752C4.89543 0.908616 3.90153 1.53355 2.99307 2.34568C2.08177 3.15781 1.35557 4.23489 0.81448 5.57116C0.273392 6.90743 0 8.40786 0 10.0724C0 13.4016 1.47803 27.084 3.66516 29.0509C5.8523 31.0179 8.91087 32 12.838 32H17.0443C21.0085 32 24.0471 31.0294 26.1602 29.0884C28.2733 27.1473 28.9454 13.4621 28.9454 10.1099C28.9454 8.37042 28.6748 6.81816 28.1309 5.45885L28.1337 5.46173Z" fill="black"/>
<path d="M14.4727 14.7148C17.5932 14.7148 20.1228 12.1567 20.1228 9.00112C20.1228 5.84553 17.5932 3.28741 14.4727 3.28741C11.3522 3.28741 8.8226 5.84553 8.8226 9.00112C8.8226 12.1567 11.3522 14.7148 14.4727 14.7148Z" fill="black"/>
<path d="M64.7892 17.9963V14.2517C64.7892 10.7578 65.6744 8.01071 67.4475 6.0054C69.218 4.0001 71.5905 3 74.565 3C77.5394 3 79.9069 3.99754 81.6723 5.99006C83.4378 7.98257 84.3205 10.7373 84.3205 14.2543V17.9989C84.3205 21.4928 83.4327 24.199 81.6546 26.1199C79.8765 28.0408 77.4939 28.9999 74.5043 28.9999C71.5146 28.9999 69.1345 28.0408 67.3969 26.1199C65.6592 24.199 64.7892 21.4928 64.7892 17.9989V17.9963ZM67.6625 14.2517V17.9963C67.6625 19.3852 67.8395 20.6232 68.1936 21.7077C68.5477 22.7947 69.0384 23.6695 69.6631 24.3371C70.2879 25.0021 71.0087 25.5034 71.8232 25.8411C72.6376 26.1761 73.5431 26.3449 74.5397 26.3449C75.5362 26.3449 76.4341 26.1761 77.2637 25.8411C78.0934 25.506 78.8269 25.0047 79.4642 24.3371C80.1016 23.6721 80.5898 22.7947 80.9338 21.7077C81.2778 20.6206 81.4497 19.3852 81.4497 17.9963V14.2517C81.4497 11.497 80.8098 9.37657 79.5325 7.88538C78.2527 6.39674 76.5909 5.65243 74.5422 5.65243C72.4934 5.65243 70.8646 6.39163 69.5847 7.87003C68.3049 9.34843 67.6675 11.4765 67.6675 14.2517H67.6625Z" fill="black"/>
<path d="M91.8301 28.9974H91.8124C91.0891 28.9974 90.4997 28.404 90.4997 27.6699V5.72666C90.4997 4.79562 91.2459 4.04108 92.1666 4.04108C92.8368 4.04108 93.4413 4.44776 93.7018 5.07187L101.608 24.0276H101.707L109.561 5.08721C109.824 4.45288 110.436 4.04108 111.116 4.04108C112.047 4.04108 112.801 4.8033 112.801 5.74456V27.6699C112.801 28.4015 112.214 28.9974 111.488 28.9974C110.765 28.9974 110.175 28.404 110.175 27.6699L109.993 10.4049L103.46 25.8769C103.151 26.6085 102.441 27.0842 101.654 27.0842C100.87 27.0842 100.159 26.611 99.8506 25.882L93.2693 10.4074L93.1353 27.6725C93.1353 28.404 92.5485 29 91.8226 29L91.8301 28.9974Z" fill="black"/>
<path d="M120.118 5.36857C120.118 4.63704 120.705 4.04108 121.431 4.04108H128.971C131.295 4.04108 133.172 4.74703 134.601 6.15637C136.03 7.56827 136.743 9.42522 136.743 11.7324C136.743 14.0395 136.03 15.8913 134.601 17.2904C133.172 18.6895 131.295 19.3904 128.971 19.3904H123.024V27.5267C123.024 28.3375 122.374 28.9974 121.57 28.9974C120.768 28.9974 120.115 28.3401 120.115 27.5267V5.36857H120.118ZM123.024 6.66025V16.7712H126.894C127.658 16.7712 128.333 16.7405 128.92 16.6791C129.507 16.6177 130.071 16.5231 130.615 16.3926C131.156 16.2648 131.611 16.078 131.975 15.8376C132.34 15.5972 132.668 15.2902 132.954 14.9142C133.243 14.5382 133.45 14.0881 133.576 13.5612C133.703 13.0343 133.769 12.4255 133.769 11.7298C133.769 10.1184 133.341 8.87018 132.489 7.98519C131.636 7.10019 130.43 6.6577 128.869 6.6577H123.024V6.66025Z" fill="black"/>
<path d="M140.565 28.9974C139.604 28.9974 138.934 28.0331 139.26 27.1175L147.002 5.37368C147.288 4.57309 148.039 4.03851 148.879 4.03851C149.721 4.03851 150.472 4.57309 150.758 5.37624L158.437 27.0228C158.779 27.9845 158.073 28.9974 157.064 28.9974C156.436 28.9974 155.88 28.5933 155.68 27.9922L153.457 21.3062H144.124L141.885 28.0408C141.696 28.6112 141.167 28.9974 140.57 28.9974H140.565ZM148.854 7.63477H148.755L144.951 18.9376H152.658L148.854 7.63477Z" fill="black"/>
<path d="M165.615 28.9974C164.813 28.9974 164.161 28.3401 164.161 27.5267V5.61923C164.161 4.74703 164.859 4.04108 165.721 4.04108H166.349C166.796 4.04108 167.214 4.27128 167.454 4.65239L179.822 23.9918V5.4939C179.822 4.69076 180.465 4.04108 181.259 4.04108C182.053 4.04108 182.696 4.69076 182.696 5.4939V27.4065C182.696 28.2864 181.99 29 181.12 29H180.541C180.093 29 179.678 28.7698 179.435 28.3887L167.067 9.04667V27.5293C167.067 28.3401 166.417 29 165.613 29L165.615 28.9974Z" fill="black"/>
<path d="M191.194 28.9974C190.392 28.9974 189.74 28.3401 189.74 27.5267V5.50924C189.74 4.69842 190.39 4.03851 191.194 4.03851C191.996 4.03851 192.648 4.69587 192.648 5.50924V27.5267C192.648 28.3375 191.998 28.9974 191.194 28.9974Z" fill="black"/>
<path d="M43.8211 14.2517V17.9119C43.8211 20.7332 44.4256 22.8433 45.6321 24.2424C46.8386 25.6416 48.5054 26.3424 50.63 26.3424C52.5346 26.3424 54.0193 25.8359 55.0816 24.8231C55.8632 24.0787 56.3589 23.2091 56.5638 22.2192C56.7004 21.5644 57.2796 21.104 57.9423 21.104C58.8427 21.104 59.518 21.9635 59.2853 22.8433C59.2044 23.1528 59.1007 23.4649 58.9742 23.7744C58.6151 24.6696 58.089 25.5213 57.3959 26.327C56.7029 27.1327 55.7595 27.7799 54.5631 28.2659C53.3667 28.7518 52.006 28.9974 50.4783 28.9974C47.5341 28.9974 45.2072 28.0484 43.5024 26.1506C41.7977 24.2527 40.9453 21.5235 40.9453 17.9631V14.1852C40.9453 10.658 41.8078 7.91351 43.5353 5.94657C45.2628 3.98219 47.5873 3 50.5111 3C51.9731 3 53.2909 3.24299 54.4645 3.73153C55.6381 4.21751 56.5815 4.86974 57.2973 5.68824C58.0106 6.50673 58.5594 7.3994 58.9414 8.36624C59.1032 8.77549 59.2297 9.18985 59.3233 9.60933C59.5231 10.502 58.8377 11.3461 57.9322 11.3461C57.2771 11.3461 56.6953 10.8908 56.5638 10.2411C56.3539 9.19497 55.8354 8.24347 55.0108 7.38405C53.903 6.23049 52.4031 5.65499 50.5111 5.65499C48.4852 5.65499 46.8639 6.39419 45.6447 7.87259C44.4256 9.35099 43.8186 11.4791 43.8186 14.2543L43.8211 14.2517Z" fill="black"/>
</svg>
